# xmcd
#
# Track frame offsets:
#	183
#	20680
#	72595
#	105258
#	129723
#	164480
#	201000
#	237745
#
# Disc length: 3324 seconds
#
# Revision: 1
# Processed by: cddbd v1.5.2PL0 Copyright (c) Steve Scherf et al.
# Submitted via: audiograbber 1.83.01
#
DISCID=730cfa08
DTITLE=Anyone - Anyone
DYEAR=1992
DGENRE=
TTITLE0=Anyone - Song For Anyone
TTITLE1=Anyone - Dou You Like It? Really, Do You?
TTITLE2=Anyone - September
TTITLE3=Anyone - Some Words You Said
TTITLE4=Anyone - Secret Doors
TTITLE5=Anyone - Just You
TTITLE6=Anyone - Always Looking For You
TTITLE7=Anyone - Time Remembered
EXTD=
EXTT0=
EXTT1=
EXTT2=
EXTT3=
EXTT4=
EXTT5=
EXTT6=
EXTT7=
PLAYORDER=
